# xmcd
#
# Track frame offsets:
# 180
# 13286
# 25875
# 38866
# 49315
# 65113
# 76586
# 98804
# 119410
# 136547
# 152015
# 165311
# 177769
# 190809
# 201313
# 217217
# 228731
# 250872
# 271483
# 288589
#
# Disc length: 4051 seconds
#
#
# Revision: 0
# Processed by: cddbd v1.5.2PL0 Copyright (c) Steve Scherf et al.
# Submitted via: FreeRIP 2.945 
#
DISCID=210fd114
DTITLE=Aretha Franklin - Sing the Hits of Aretha Franklin
DYEAR=1997
DGENRE=Soul
TTITLE0=Chain of fools
TTITLE1=I never loved a man the way that I loved you
TTITLE2=You make me feel like a natural woman
TTITLE3=Think
TTITLE4=Until you come back to me
TTITLE5=Respect
TTITLE6=Freeway of love
TTITLE7=Who's zoomin' who
TTITLE8=I knew you were waiting for me
TTITLE9=Rock steady
TTITLE10=Chain of fools - Backing Track
TTITLE11=I never loved a man the way that I loved you - Backing Track
TTITLE12=You make me feel like a natural woman - Backing Track
TTITLE13=Think - Backing Track
TTITLE14=Until you come back to me - Backing Track
TTITLE15=Respect - Backing Track
TTITLE16=Freeway of love - Backing Track
TTITLE17=Who's zoomin' who - Backing Track
TTITLE18=I knew you were waiting for me - Backing Track
TTITLE19=Rock steady - Backing Track
EXTD=
EXTT0=
EXTT1=
EXTT2=
EXTT3=
EXTT4=
EXTT5=
EXTT6=
EXTT7=
EXTT8=
EXTT9=
EXTT10=
EXTT11=
EXTT12=
EXTT13=
EXTT14=
EXTT15=
EXTT16=
EXTT17=
EXTT18=
EXTT19=
PLAYORDER=
